<svg width="84" height="92" viewBox="0 0 84 92" xmlns="http://www.w3.org/2000/svg">
<path d="M81.9023 88.2248H79.3445V7.90877C79.3445 7.06097 78.6572 6.37411 77.8098 6.37411H49.162C48.3144 6.37411 47.6273 7.06097 47.6273 7.90877V14.5591H44.558V7.90877C44.558 7.06097 43.8708 6.37411 43.0234 6.37411H36.3729V1.76995C36.3729 0.922144 35.6856 0.235291 34.8382 0.235291C33.9907 0.235291 33.3035 0.922144 33.3035 1.76995V6.37411H26.6532C25.8056 6.37411 25.1186 7.06097 25.1186 7.90877V14.5591H20.5144C19.6668 14.5591 18.9797 15.2459 18.9797 16.0938V28.8829H6.19059C5.34296 28.8829 4.65593 29.5697 4.65593 30.4176V88.2246H2.09774C1.25011 88.2246 0.56308 88.9115 0.56308 89.7593C0.56308 90.6071 1.25029 91.2941 2.09774 91.2941H81.9023C82.7499 91.2941 83.437 90.6073 83.437 89.7595C83.437 88.9116 82.7497 88.2248 81.9023 88.2248ZM28.1877 9.44344H41.4883V14.5591H28.1877V9.44344ZM23.072 88.2248H22.0489V85.667C22.0489 84.8192 21.3617 84.1323 20.5142 84.1323C19.6668 84.1323 18.9796 84.8192 18.9796 85.667V88.2248H17.9564V83.1091H23.072V88.2248ZM33.3034 48.834V51.4742V88.2248H26.1414V81.5745C26.1414 80.7267 25.4542 80.0398 24.6067 80.0398H16.4217C15.5741 80.0398 14.8871 80.7267 14.8871 81.5745V88.2248H7.72507V31.9524H33.3034V48.834ZM34.838 28.8831H22.0489V17.6286H47.6272V47.2994H36.3729V42.1837H40.977C41.8247 42.1837 42.5117 41.4969 42.5117 40.649C42.5117 39.8012 41.8245 39.1144 40.977 39.1144H36.3729V33.9987H40.977C41.8247 33.9987 42.5117 33.3119 42.5117 32.4641C42.5117 31.6163 41.8245 30.9294 40.977 30.9294H36.3729V30.4179C36.3729 29.5699 35.6856 28.8831 34.838 28.8831ZM61.9511 88.2248H36.3729V51.4742V50.3689H61.9511V88.2248ZM76.275 88.2248H65.0205V48.834V46.7877C65.0205 45.9399 64.3333 45.253 63.4858 45.253C62.6384 45.253 61.9511 45.9399 61.9511 46.7877V47.2992H58.8818V46.7877C58.8818 45.9399 58.1946 45.253 57.3472 45.253C56.4997 45.253 55.8125 45.9399 55.8125 46.7877V47.2992H50.6968V16.0939V9.44344H76.2751V88.2248H76.275Z" fill="black"/>
<path d="M43.0232 85.1556C43.8708 85.1556 44.5578 84.4684 44.5578 83.621V54.9734C44.5578 54.1256 43.8706 53.4387 43.0232 53.4387C42.1757 53.4387 41.4885 54.1256 41.4885 54.9734V83.6212C41.4885 84.4686 42.1755 85.1556 43.0232 85.1556Z" fill="black"/>
<path d="M49.162 85.1556C50.0096 85.1556 50.6967 84.4684 50.6967 83.621V54.9734C50.6967 54.1256 50.0095 53.4387 49.162 53.4387C48.3146 53.4387 47.6273 54.1256 47.6273 54.9734V83.6212C47.6272 84.4686 48.3144 85.1556 49.162 85.1556Z" fill="black"/>
<path d="M55.3006 85.1556C56.1483 85.1556 56.8353 84.4684 56.8353 83.621V54.9734C56.8353 54.1256 56.1481 53.4387 55.3006 53.4387C54.4532 53.4387 53.766 54.1256 53.766 54.9734V83.6212C53.766 84.4686 54.4532 85.1556 55.3006 85.1556Z" fill="black"/>
<path d="M57.347 19.6747C58.1946 19.6747 58.8816 18.9879 58.8816 18.1401V16.0939C58.8816 15.2461 58.1944 14.5593 57.347 14.5593C56.4995 14.5593 55.8123 15.2461 55.8123 16.0939V18.1403C55.8123 18.9879 56.4993 19.6747 57.347 19.6747Z" fill="black"/>
<path d="M63.4858 19.6747C64.3334 19.6747 65.0205 18.9879 65.0205 18.1401V16.0939C65.0205 15.2461 64.3333 14.5593 63.4858 14.5593C62.6384 14.5593 61.9511 15.2461 61.9511 16.0939V18.1403C61.9511 18.9879 62.6382 19.6747 63.4858 19.6747Z" fill="black"/>
<path d="M69.6246 19.6747C70.4722 19.6747 71.1593 18.9879 71.1593 18.1401V16.0939C71.1593 15.2461 70.4721 14.5593 69.6246 14.5593C68.7772 14.5593 68.09 15.2461 68.09 16.0939V18.1403C68.09 18.9879 68.777 19.6747 69.6246 19.6747Z" fill="black"/>
<path d="M57.347 29.906C58.1946 29.906 58.8816 29.2192 58.8816 28.3714V26.3251C58.8816 25.4772 58.1944 24.7904 57.347 24.7904C56.4995 24.7904 55.8123 25.4772 55.8123 26.3251V28.3714C55.8123 29.2192 56.4993 29.906 57.347 29.906Z" fill="black"/>
<path d="M63.4858 29.906C64.3334 29.906 65.0205 29.2192 65.0205 28.3714V26.3251C65.0205 25.4772 64.3333 24.7904 63.4858 24.7904C62.6384 24.7904 61.9511 25.4772 61.9511 26.3251V28.3714C61.9511 29.2192 62.6382 29.906 63.4858 29.906Z" fill="black"/>
<path d="M69.6246 29.906C70.4722 29.906 71.1593 29.2192 71.1593 28.3714V26.3251C71.1593 25.4772 70.4721 24.7904 69.6246 24.7904C68.7772 24.7904 68.09 25.4772 68.09 26.3251V28.3714C68.09 29.2192 68.777 29.906 69.6246 29.906Z" fill="black"/>
<path d="M57.347 40.1375C58.1946 40.1375 58.8816 39.4507 58.8816 38.6029V36.5565C58.8816 35.7087 58.1944 35.0219 57.347 35.0219C56.4995 35.0219 55.8123 35.7087 55.8123 36.5565V38.6029C55.8123 39.4505 56.4993 40.1375 57.347 40.1375Z" fill="black"/>
<path d="M63.4858 40.1375C64.3334 40.1375 65.0205 39.4507 65.0205 38.6029V36.5565C65.0205 35.7087 64.3333 35.0219 63.4858 35.0219C62.6384 35.0219 61.9511 35.7087 61.9511 36.5565V38.6029C61.9511 39.4505 62.6382 40.1375 63.4858 40.1375Z" fill="black"/>
<path d="M69.6246 40.1375C70.4722 40.1375 71.1593 39.4507 71.1593 38.6029V36.5565C71.1593 35.7087 70.4721 35.0219 69.6246 35.0219C68.7772 35.0219 68.09 35.7087 68.09 36.5565V38.6029C68.09 39.4505 68.777 40.1375 69.6246 40.1375Z" fill="black"/>
<path d="M14.3754 44.23C15.223 44.23 15.9101 43.5432 15.9101 42.6954V40.649C15.9101 39.8012 15.2228 39.1144 14.3754 39.1144C13.5279 39.1144 12.8407 39.8012 12.8407 40.649V42.6954C12.8407 43.543 13.5279 44.23 14.3754 44.23Z" fill="black"/>
<path d="M20.5142 44.23C21.3618 44.23 22.0489 43.5432 22.0489 42.6954V40.649C22.0489 39.8012 21.3617 39.1144 20.5142 39.1144C19.6668 39.1144 18.9796 39.8012 18.9796 40.649V42.6954C18.9796 43.543 19.6666 44.23 20.5142 44.23Z" fill="black"/>
<path d="M26.653 44.23C27.5007 44.23 28.1877 43.5432 28.1877 42.6954V40.649C28.1877 39.8012 27.5005 39.1144 26.653 39.1144C25.8056 39.1144 25.1184 39.8012 25.1184 40.649V42.6954C25.1184 43.543 25.8054 44.23 26.653 44.23Z" fill="black"/>
<path d="M14.3754 54.4614C15.223 54.4614 15.9101 53.7745 15.9101 52.9267V50.8804C15.9101 50.0326 15.2228 49.3457 14.3754 49.3457C13.5279 49.3457 12.8407 50.0326 12.8407 50.8804V52.9267C12.8407 53.7743 13.5279 54.4614 14.3754 54.4614Z" fill="black"/>
<path d="M20.5142 54.4614C21.3618 54.4614 22.0489 53.7745 22.0489 52.9267V50.8804C22.0489 50.0326 21.3617 49.3457 20.5142 49.3457C19.6668 49.3457 18.9796 50.0326 18.9796 50.8804V52.9267C18.9796 53.7743 19.6666 54.4614 20.5142 54.4614Z" fill="black"/>
<path d="M26.653 54.4614C27.5007 54.4614 28.1877 53.7745 28.1877 52.9267V50.8804C28.1877 50.0326 27.5005 49.3457 26.653 49.3457C25.8056 49.3457 25.1184 50.0326 25.1184 50.8804V52.9267C25.1184 53.7743 25.8054 54.4614 26.653 54.4614Z" fill="black"/>
<path d="M14.3754 64.6927C15.223 64.6927 15.9101 64.0058 15.9101 63.158V61.1117C15.9101 60.2639 15.2228 59.577 14.3754 59.577C13.5279 59.577 12.8407 60.2639 12.8407 61.1117V63.158C12.8407 64.0058 13.5279 64.6927 14.3754 64.6927Z" fill="black"/>
<path d="M20.5142 64.6927C21.3618 64.6927 22.0489 64.0058 22.0489 63.158V61.1117C22.0489 60.2639 21.3617 59.577 20.5142 59.577C19.6668 59.577 18.9796 60.2639 18.9796 61.1117V63.158C18.9796 64.0058 19.6666 64.6927 20.5142 64.6927Z" fill="black"/>
<path d="M26.653 64.6927C27.5007 64.6927 28.1877 64.0058 28.1877 63.158V61.1117C28.1877 60.2639 27.5005 59.577 26.653 59.577C25.8056 59.577 25.1184 60.2639 25.1184 61.1117V63.158C25.1184 64.0058 25.8054 64.6927 26.653 64.6927Z" fill="black"/>
<path d="M14.3754 74.924C15.223 74.924 15.9101 74.2371 15.9101 73.3893V71.343C15.9101 70.4952 15.2228 69.8083 14.3754 69.8083C13.5279 69.8083 12.8407 70.4952 12.8407 71.343V73.3893C12.8407 74.2371 13.5279 74.924 14.3754 74.924Z" fill="black"/>
<path d="M20.5142 74.924C21.3618 74.924 22.0489 74.2371 22.0489 73.3893V71.343C22.0489 70.4952 21.3617 69.8083 20.5142 69.8083C19.6668 69.8083 18.9796 70.4952 18.9796 71.343V73.3893C18.9796 74.2371 19.6666 74.924 20.5142 74.924Z" fill="black"/>
<path d="M26.653 74.924C27.5007 74.924 28.1877 74.2371 28.1877 73.3893V71.343C28.1877 70.4952 27.5005 69.8083 26.653 69.8083C25.8056 69.8083 25.1184 70.4952 25.1184 71.343V73.3893C25.1184 74.2371 25.8054 74.924 26.653 74.924Z" fill="black"/>
<path d="M69.6246 50.3689C70.4722 50.3689 71.1593 49.682 71.1593 48.8342V46.7879C71.1593 45.9401 70.4721 45.2532 69.6246 45.2532C68.7772 45.2532 68.09 45.9401 68.09 46.7879V48.8342C68.09 49.6818 68.777 50.3689 69.6246 50.3689Z" fill="black"/>
<path d="M69.6246 60.6002C70.4722 60.6002 71.1593 59.9133 71.1593 59.0655V57.0192C71.1593 56.1714 70.4721 55.4845 69.6246 55.4845C68.7772 55.4845 68.09 56.1714 68.09 57.0192V59.0655C68.09 59.9131 68.777 60.6002 69.6246 60.6002Z" fill="black"/>
<path d="M69.6246 70.8315C70.4722 70.8315 71.1593 70.1446 71.1593 69.2968V67.2505C71.1593 66.4027 70.4721 65.7158 69.6246 65.7158C68.7772 65.7158 68.09 66.4027 68.09 67.2505V69.2968C68.09 70.1445 68.777 70.8315 69.6246 70.8315Z" fill="black"/>
<path d="M69.6246 81.0628C70.4722 81.0628 71.1593 80.3759 71.1593 79.5281V77.4818C71.1593 76.634 70.4721 75.9471 69.6246 75.9471C68.7772 75.9471 68.09 76.634 68.09 77.4818V79.5281C68.09 80.3758 68.777 81.0628 69.6246 81.0628Z" fill="black"/>
<path d="M42.5115 24.2789C42.5115 23.4311 41.8243 22.7442 40.9768 22.7442H28.6992C27.8516 22.7442 27.1645 23.4311 27.1645 24.2789C27.1645 25.1267 27.8517 25.8136 28.6992 25.8136H40.9768C41.8245 25.8136 42.5115 25.1267 42.5115 24.2789Z" fill="black"/>
</svg>
