<svg width="30" height="22" viewBox="0 0 30 22" fill="none" xmlns="http://www.w3.org/2000/svg">
<path d="M29.9905 0.951024C29.9871 0.917086 29.9804 0.883648 29.9705 0.851023C29.9605 0.818711 29.9471 0.787523 29.9305 0.758023C29.9225 0.744023 29.921 0.727524 29.9115 0.714024C29.902 0.700524 29.89 0.695023 29.8805 0.683523C29.8582 0.657211 29.8332 0.633273 29.806 0.612023C29.7823 0.593023 29.7569 0.576273 29.73 0.562023C29.7021 0.547648 29.6728 0.536086 29.6425 0.527524C29.6098 0.517836 29.5764 0.511149 29.5425 0.507524C29.5275 0.507524 29.5145 0.499023 29.499 0.499023H0.5C0.484875 0.501273 0.469813 0.504273 0.455 0.508023C0.422438 0.511273 0.39025 0.517836 0.359 0.527524C0.328 0.536336 0.297812 0.548086 0.269 0.562523C0.242687 0.576898 0.217812 0.593649 0.1945 0.612524C0.167 0.633774 0.141875 0.657899 0.1195 0.684524C0.11 0.696024 0.097 0.702524 0.0885 0.715024C0.08 0.727524 0.0775 0.745023 0.0695 0.759023C0.0529375 0.788523 0.0395 0.819711 0.0295 0.852024C0.0195625 0.884649 0.012875 0.918086 0.0095 0.952024C0.0095 0.968524 0 0.983023 0 1.00202V21.001C0 21.2771 0.223875 21.501 0.5 21.501H29.5C29.7761 21.501 30 21.2771 30 21.001V1.00102C30 0.984023 29.992 0.969524 29.9905 0.951024ZM27.894 1.50102L15 10.3935L2.106 1.50102H27.894ZM29 20.501H1V1.95352L14.716 11.4125C14.8869 11.5305 15.1131 11.5305 15.284 11.4125L29 1.95352V20.501Z" fill="white"/>
</svg>
