<svg width="84" height="92" viewBox="0 0 84 92" fill="none" xmlns="http://www.w3.org/2000/svg">
<path d="M81.7846 87.9895H79.2268V7.67348C79.2268 6.82568 78.5396 6.13882 77.6921 6.13882H49.0444C48.1967 6.13882 47.5097 6.82568 47.5097 7.67348V14.3238H44.4404V7.67348C44.4404 6.82568 43.7532 6.13882 42.9057 6.13882H36.2552V1.53466C36.2552 0.686854 35.568 0 34.7206 0C33.8731 0 33.1859 0.686854 33.1859 1.53466V6.13882H26.5356C25.6879 6.13882 25.0009 6.82568 25.0009 7.67348V14.3238H20.3967C19.5491 14.3238 18.8621 15.0107 18.8621 15.8585V28.6476H6.07294C5.22531 28.6476 4.53828 29.3345 4.53828 30.1823V87.9893H1.9801C1.13247 87.9893 0.445435 88.6762 0.445435 89.524C0.445435 90.3718 1.13264 91.0588 1.9801 91.0588H81.7846C82.6323 91.0588 83.3193 90.372 83.3193 89.5242C83.3193 88.6764 82.6321 87.9895 81.7846 87.9895ZM28.0701 9.20815H41.3707V14.3238H28.0701V9.20815ZM22.9544 87.9895H21.9312V85.4317C21.9312 84.5839 21.244 83.897 20.3966 83.897C19.5491 83.897 18.8619 84.5839 18.8619 85.4317V87.9895H17.8387V82.8738H22.9544V87.9895ZM33.1857 48.5987V51.2389V87.9895H26.0237V81.3392C26.0237 80.4914 25.3365 79.8045 24.4891 79.8045H16.3041C15.4564 79.8045 14.7694 80.4914 14.7694 81.3392V87.9895H7.60743V31.7171H33.1857V48.5987ZM34.7204 28.6478H21.9312V17.3933H47.5095V47.0641H36.2552V41.9484H40.8594C41.707 41.9484 42.394 41.2616 42.394 40.4138C42.394 39.5659 41.7068 38.8791 40.8594 38.8791H36.2552V33.7634H40.8594C41.707 33.7634 42.394 33.0766 42.394 32.2288C42.394 31.381 41.7068 30.6941 40.8594 30.6941H36.2552V30.1826C36.2552 29.3346 35.568 28.6478 34.7204 28.6478ZM61.8335 87.9895H36.2552V51.2389V50.1336H61.8335V87.9895ZM76.1573 87.9895H64.9028V48.5987V46.5524C64.9028 45.7046 64.2156 45.0177 63.3682 45.0177C62.5207 45.0177 61.8335 45.7046 61.8335 46.5524V47.0639H58.7642V46.5524C58.7642 45.7046 58.077 45.0177 57.2295 45.0177C56.3821 45.0177 55.6949 45.7046 55.6949 46.5524V47.0639H50.5792V15.8586V9.20815H76.1575V87.9895H76.1573Z" fill="white"/>
<path d="M42.9055 84.9204C43.7531 84.9204 44.4402 84.2331 44.4402 83.3857V54.7381C44.4402 53.8903 43.753 53.2034 42.9055 53.2034C42.0581 53.2034 41.3708 53.8903 41.3708 54.7381V83.3859C41.3708 84.2333 42.0579 84.9204 42.9055 84.9204Z" fill="white"/>
<path d="M49.0444 84.9204C49.892 84.9204 50.579 84.2331 50.579 83.3857V54.7381C50.579 53.8903 49.8918 53.2034 49.0444 53.2034C48.1969 53.2034 47.5097 53.8903 47.5097 54.7381V83.3859C47.5095 84.2333 48.1967 84.9204 49.0444 84.9204Z" fill="white"/>
<path d="M55.183 84.9204C56.0306 84.9204 56.7176 84.2331 56.7176 83.3857V54.7381C56.7176 53.8903 56.0304 53.2034 55.183 53.2034C54.3355 53.2034 53.6483 53.8903 53.6483 54.7381V83.3859C53.6483 84.2333 54.3355 84.9204 55.183 84.9204Z" fill="white"/>
<path d="M57.2293 19.4395C58.0769 19.4395 58.764 18.7526 58.764 17.9048V15.8586C58.764 15.0108 58.0768 14.324 57.2293 14.324C56.3819 14.324 55.6946 15.0108 55.6946 15.8586V17.905C55.6946 18.7526 56.3817 19.4395 57.2293 19.4395Z" fill="white"/>
<path d="M63.3682 19.4395C64.2158 19.4395 64.9028 18.7526 64.9028 17.9048V15.8586C64.9028 15.0108 64.2156 14.324 63.3682 14.324C62.5207 14.324 61.8335 15.0108 61.8335 15.8586V17.905C61.8335 18.7526 62.5205 19.4395 63.3682 19.4395Z" fill="white"/>
<path d="M69.507 19.4395C70.3546 19.4395 71.0416 18.7526 71.0416 17.9048V15.8586C71.0416 15.0108 70.3544 14.324 69.507 14.324C68.6595 14.324 67.9723 15.0108 67.9723 15.8586V17.905C67.9723 18.7526 68.6593 19.4395 69.507 19.4395Z" fill="white"/>
<path d="M57.2293 29.6708C58.0769 29.6708 58.764 28.9839 58.764 28.1361V26.0898C58.764 25.242 58.0768 24.5551 57.2293 24.5551C56.3819 24.5551 55.6946 25.242 55.6946 26.0898V28.1361C55.6946 28.9839 56.3817 29.6708 57.2293 29.6708Z" fill="white"/>
<path d="M63.3682 29.6708C64.2158 29.6708 64.9028 28.9839 64.9028 28.1361V26.0898C64.9028 25.242 64.2156 24.5551 63.3682 24.5551C62.5207 24.5551 61.8335 25.242 61.8335 26.0898V28.1361C61.8335 28.9839 62.5205 29.6708 63.3682 29.6708Z" fill="white"/>
<path d="M69.507 29.6708C70.3546 29.6708 71.0416 28.9839 71.0416 28.1361V26.0898C71.0416 25.242 70.3544 24.5551 69.507 24.5551C68.6595 24.5551 67.9723 25.242 67.9723 26.0898V28.1361C67.9723 28.9839 68.6593 29.6708 69.507 29.6708Z" fill="white"/>
<path d="M57.2293 39.9022C58.0769 39.9022 58.764 39.2154 58.764 38.3676V36.3213C58.764 35.4734 58.0768 34.7866 57.2293 34.7866C56.3819 34.7866 55.6946 35.4734 55.6946 36.3213V38.3676C55.6946 39.2152 56.3817 39.9022 57.2293 39.9022Z" fill="white"/>
<path d="M63.3682 39.9022C64.2158 39.9022 64.9028 39.2154 64.9028 38.3676V36.3213C64.9028 35.4734 64.2156 34.7866 63.3682 34.7866C62.5207 34.7866 61.8335 35.4734 61.8335 36.3213V38.3676C61.8335 39.2152 62.5205 39.9022 63.3682 39.9022Z" fill="white"/>
<path d="M69.507 39.9022C70.3546 39.9022 71.0416 39.2154 71.0416 38.3676V36.3213C71.0416 35.4734 70.3544 34.7866 69.507 34.7866C68.6595 34.7866 67.9723 35.4734 67.9723 36.3213V38.3676C67.9723 39.2152 68.6593 39.9022 69.507 39.9022Z" fill="white"/>
<path d="M14.2577 43.9948C15.1054 43.9948 15.7924 43.3079 15.7924 42.4601V40.4138C15.7924 39.5659 15.1052 38.8791 14.2577 38.8791C13.4103 38.8791 12.7231 39.5659 12.7231 40.4138V42.4601C12.7231 43.3077 13.4103 43.9948 14.2577 43.9948Z" fill="white"/>
<path d="M20.3966 43.9948C21.2442 43.9948 21.9312 43.3079 21.9312 42.4601V40.4138C21.9312 39.5659 21.244 38.8791 20.3966 38.8791C19.5491 38.8791 18.8619 39.5659 18.8619 40.4138V42.4601C18.8619 43.3077 19.5489 43.9948 20.3966 43.9948Z" fill="white"/>
<path d="M26.5354 43.9948C27.383 43.9948 28.0701 43.3079 28.0701 42.4601V40.4138C28.0701 39.5659 27.3828 38.8791 26.5354 38.8791C25.6879 38.8791 25.0007 39.5659 25.0007 40.4138V42.4601C25.0007 43.3077 25.6878 43.9948 26.5354 43.9948Z" fill="white"/>
<path d="M14.2577 54.2261C15.1054 54.2261 15.7924 53.5392 15.7924 52.6914V50.6451C15.7924 49.7973 15.1052 49.1104 14.2577 49.1104C13.4103 49.1104 12.7231 49.7973 12.7231 50.6451V52.6914C12.7231 53.539 13.4103 54.2261 14.2577 54.2261Z" fill="white"/>
<path d="M20.3966 54.2261C21.2442 54.2261 21.9312 53.5392 21.9312 52.6914V50.6451C21.9312 49.7973 21.244 49.1104 20.3966 49.1104C19.5491 49.1104 18.8619 49.7973 18.8619 50.6451V52.6914C18.8619 53.539 19.5489 54.2261 20.3966 54.2261Z" fill="white"/>
<path d="M26.5354 54.2261C27.383 54.2261 28.0701 53.5392 28.0701 52.6914V50.6451C28.0701 49.7973 27.3828 49.1104 26.5354 49.1104C25.6879 49.1104 25.0007 49.7973 25.0007 50.6451V52.6914C25.0007 53.539 25.6878 54.2261 26.5354 54.2261Z" fill="white"/>
<path d="M14.2577 64.4574C15.1054 64.4574 15.7924 63.7705 15.7924 62.9227V60.8764C15.7924 60.0286 15.1052 59.3417 14.2577 59.3417C13.4103 59.3417 12.7231 60.0286 12.7231 60.8764V62.9227C12.7231 63.7705 13.4103 64.4574 14.2577 64.4574Z" fill="white"/>
<path d="M20.3966 64.4574C21.2442 64.4574 21.9312 63.7705 21.9312 62.9227V60.8764C21.9312 60.0286 21.244 59.3417 20.3966 59.3417C19.5491 59.3417 18.8619 60.0286 18.8619 60.8764V62.9227C18.8619 63.7705 19.5489 64.4574 20.3966 64.4574Z" fill="white"/>
<path d="M26.5354 64.4574C27.383 64.4574 28.0701 63.7705 28.0701 62.9227V60.8764C28.0701 60.0286 27.3828 59.3417 26.5354 59.3417C25.6879 59.3417 25.0007 60.0286 25.0007 60.8764V62.9227C25.0007 63.7705 25.6878 64.4574 26.5354 64.4574Z" fill="white"/>
<path d="M14.2577 74.6887C15.1054 74.6887 15.7924 74.0018 15.7924 73.154V71.1077C15.7924 70.2599 15.1052 69.573 14.2577 69.573C13.4103 69.573 12.7231 70.2599 12.7231 71.1077V73.154C12.7231 74.0018 13.4103 74.6887 14.2577 74.6887Z" fill="white"/>
<path d="M20.3966 74.6887C21.2442 74.6887 21.9312 74.0018 21.9312 73.154V71.1077C21.9312 70.2599 21.244 69.573 20.3966 69.573C19.5491 69.573 18.8619 70.2599 18.8619 71.1077V73.154C18.8619 74.0018 19.5489 74.6887 20.3966 74.6887Z" fill="white"/>
<path d="M26.5354 74.6887C27.383 74.6887 28.0701 74.0018 28.0701 73.154V71.1077C28.0701 70.2599 27.3828 69.573 26.5354 69.573C25.6879 69.573 25.0007 70.2599 25.0007 71.1077V73.154C25.0007 74.0018 25.6878 74.6887 26.5354 74.6887Z" fill="white"/>
<path d="M69.507 50.1336C70.3546 50.1336 71.0416 49.4467 71.0416 48.5989V46.5526C71.0416 45.7048 70.3544 45.0179 69.507 45.0179C68.6595 45.0179 67.9723 45.7048 67.9723 46.5526V48.5989C67.9723 49.4465 68.6593 50.1336 69.507 50.1336Z" fill="white"/>
<path d="M69.507 60.3649C70.3546 60.3649 71.0416 59.678 71.0416 58.8302V56.7839C71.0416 55.9361 70.3544 55.2492 69.507 55.2492C68.6595 55.2492 67.9723 55.9361 67.9723 56.7839V58.8302C67.9723 59.6779 68.6593 60.3649 69.507 60.3649Z" fill="white"/>
<path d="M69.507 70.5962C70.3546 70.5962 71.0416 69.9093 71.0416 69.0615V67.0152C71.0416 66.1674 70.3544 65.4805 69.507 65.4805C68.6595 65.4805 67.9723 66.1674 67.9723 67.0152V69.0615C67.9723 69.9092 68.6593 70.5962 69.507 70.5962Z" fill="white"/>
<path d="M69.507 80.8275C70.3546 80.8275 71.0416 80.1407 71.0416 79.2928V77.2465C71.0416 76.3987 70.3544 75.7119 69.507 75.7119C68.6595 75.7119 67.9723 76.3987 67.9723 77.2465V79.2928C67.9723 80.1405 68.6593 80.8275 69.507 80.8275Z" fill="white"/>
<path d="M42.3938 24.0436C42.3938 23.1958 41.7066 22.5089 40.8592 22.5089H28.5815C27.7339 22.5089 27.0469 23.1958 27.0469 24.0436C27.0469 24.8914 27.7341 25.5783 28.5815 25.5783H40.8592C41.7068 25.5783 42.3938 24.8914 42.3938 24.0436Z" fill="white"/>
</svg>
